# xmcd
#
# Track frame offsets:
# 150
# 8584
# 12543
# 35609
# 47633
# 64820
# 93062
# 105035
# 121171
# 135960
# 150104
# 164839
# 181294
# 195828
# 208065
# 228140
# 244413
#
# Disc length: 3506 seconds
#
#
# Revision: 3
# Processed by: cddbd v1.5PL3 Copyright (c) Steve Scherf et al.
# Submitted via: FreeRIP 2.70 
#
DISCID=c60db011
DTITLE=Garotos de Ouro  - Ao Vivo
DYEAR=2001
DGENRE=Country
TTITLE0=Abertura
TTITLE1=Vinheta
TTITLE2=Não Chora China Véia
TTITLE3=Eu Sou do Sul
TTITLE4=Os "bonitão"
TTITLE5=Pot-Pourri Jeitinho de amar/Nosso Tranco/Coisa de Louco/Seguindo o Vento
TTITLE6=Festa Campeira
TTITLE7=Vou Tomá um Pingão
TTITLE8=Gaiteiro de Barraca
TTITLE9=Potro sem Dono
TTITLE10=Gaoroto Brasileiro
TTITLE11=Chora no Ombro do Véio
TTITLE12=Instrumental dos Garotos
TTITLE13=Bailanta do Fundão
TTITLE14=Linda Flor
TTITLE15=Chorando a Saudade
TTITLE16=Paixão de Peão
EXTD=YEAR: 2001 ID3G: 2
EXTT0=
EXTT1=
EXTT2=
EXTT3=
EXTT4=
EXTT5=
EXTT6=
EXTT7=
EXTT8=
EXTT9=
EXTT10=
EXTT11=
EXTT12=
EXTT13=
EXTT14=
EXTT15=
EXTT16=
PLAYORDER=
